<svg width="24" height="24" viewBox="0 0 24 24" fill="none" xmlns="http://www.w3.org/2000/svg">
<path fill-rule="evenodd" clip-rule="evenodd" d="M14.3733 3.58915C15.0766 2.88589 16.0304 2.4908 17.025 2.4908C18.0196 2.4908 18.9734 2.88589 19.6766 3.58915C20.3799 4.29242 20.775 5.24624 20.775 6.2408C20.775 7.23537 20.3799 8.18919 19.6766 8.89245L8.53972 20.0294C8.39906 20.17 8.2083 20.2491 8.00939 20.2491L3.76675 20.2491C3.35253 20.2491 3.01675 19.9133 3.01675 19.4991L3.01674 15.2564C3.01674 15.0575 3.09576 14.8667 3.23641 14.7261L14.3733 3.58915ZM17.025 3.9908C17.6217 3.9908 18.194 4.22786 18.616 4.64981C19.0379 5.07177 19.275 5.64407 19.275 6.2408C19.275 6.57958 19.1986 6.91049 19.0553 7.21047L16.0553 4.21047C16.3553 4.06721 16.6862 3.9908 17.025 3.9908ZM4.51675 18.7491L4.51674 15.5671L14.9037 5.18015L18.0857 8.36213L7.69873 18.7491L4.51675 18.7491Z" fill="#7374B8"/>
</svg>
