<svg width="14" height="4" viewBox="0 0 14 4" fill="none" xmlns="http://www.w3.org/2000/svg">
<path d="M3.25 2C3.25 2.69036 2.69036 3.25 2 3.25C1.30964 3.25 0.75 2.69036 0.75 2C0.75 1.30964 1.30964 0.75 2 0.75C2.69036 0.75 3.25 1.30964 3.25 2Z" fill="#625EFF"/>
<path d="M13.25 2C13.25 2.69036 12.6904 3.25 12 3.25C11.3096 3.25 10.75 2.69036 10.75 2C10.75 1.30964 11.3096 0.75 12 0.75C12.6904 0.75 13.25 1.30964 13.25 2Z" fill="#625EFF"/>
<path d="M7 3.25C7.69036 3.25 8.25 2.69036 8.25 2C8.25 1.30964 7.69036 0.75 7 0.75C6.30964 0.75 5.75 1.30964 5.75 2C5.75 2.69036 6.30964 3.25 7 3.25Z" fill="#625EFF"/>
</svg>
