<svg width="17" height="16" viewBox="0 0 17 16" fill="none" xmlns="http://www.w3.org/2000/svg">
<path d="M1.75 13C1.75 13.6904 2.30964 14.25 3 14.25H11.125C11.4702 14.25 11.75 14.5298 11.75 14.875C11.75 15.2202 11.4702 15.5 11.125 15.5H3C1.61929 15.5 0.5 14.3807 0.5 13V3C0.5 1.61929 1.61929 0.5 3 0.5H11.125C11.4702 0.5 11.75 0.779822 11.75 1.125C11.75 1.47018 11.4702 1.75 11.125 1.75H3C2.30964 1.75 1.75 2.30964 1.75 3V13Z" fill="white"/>
<path d="M11.9331 4.43306C12.1771 4.18898 12.5729 4.18898 12.8169 4.43306L15.9419 7.55806C16.186 7.80214 16.186 8.19786 15.9419 8.44194L12.8169 11.5669C12.5729 11.811 12.1771 11.811 11.9331 11.5669C11.689 11.3229 11.689 10.9271 11.9331 10.6831L13.9911 8.625H6.75C6.40482 8.625 6.125 8.34518 6.125 8C6.125 7.65482 6.40482 7.375 6.75 7.375H13.9911L11.9331 5.31694C11.689 5.07286 11.689 4.67714 11.9331 4.43306Z" fill="white"/>
</svg>
