<svg width="24" height="24" viewBox="0 0 24 24" fill="none" xmlns="http://www.w3.org/2000/svg">
<path fill-rule="evenodd" clip-rule="evenodd" d="M4.00001 6C4.00001 6.00036 4.00001 6.00073 4.00001 6.00109C4.00007 9.16514 4.00005 11.8197 4.00002 14.712C4.00001 16.3527 3.99999 18.0699 3.99999 20H17.9999C17.9993 21.1041 17.1041 22 15.9999 22H4C2.89543 22 1.99999 21.1035 2 19.999L2.00001 8.00109C1.99999 6.8965 2.89542 6.00001 4.00001 6Z" fill="#42436C"/>
<mask id="path-2-inside-1_2652_8478" fill="white">
<path d="M6.00001 4.00109C5.99999 2.8965 6.89542 2 8.00002 2L19.9999 2C21.1045 2 21.9999 2.89642 21.9999 4.00096C22 8.31615 21.9999 11.6838 21.9999 15.999C21.9999 17.1035 21.1045 18 19.9999 18H8C6.89543 18 5.99999 17.1035 6 15.999C6.00002 11.6838 6.00009 8.31622 6.00001 4.00109Z"/>
</mask>
<path d="M21.9999 15.999L19.9999 15.999L21.9999 15.999ZM8.00002 2V0V2ZM19.9999 0H8.00002V4H19.9999V0ZM8 20H19.9999V16H8V20ZM4.00001 4.00113C4.00009 8.31623 4.00002 11.6838 4 15.999L8 15.999C8.00002 11.6839 8.00009 8.31621 8.00001 4.00105L4.00001 4.00113ZM23.9999 15.999C23.9999 11.6838 24 8.31614 23.9999 4.00091L19.9999 4.00101C20 8.31616 19.9999 11.6837 19.9999 15.999L23.9999 15.999ZM8 16C7.99753 16 7.99718 15.9998 7.99828 16C7.99927 16.0002 8.00035 16.0006 8.00124 16.0009C8.00276 16.0016 8.00209 16.0016 8.0005 16C7.99891 15.9984 7.99878 15.9976 7.99929 15.9988C7.9996 15.9995 7.99988 16.0004 8.00005 16.0012C8.00023 16.0021 8 16.0016 8 15.999L4 15.999C3.99999 18.2068 5.78951 20 8 20V16ZM19.9999 20C22.2104 20 23.9999 18.2068 23.9999 15.999L19.9999 15.999C19.9999 16.0016 19.9997 16.0021 19.9999 16.0012C20 16.0004 20.0003 15.9995 20.0006 15.9988C20.0011 15.9976 20.001 15.9984 19.9994 16C19.9978 16.0016 19.9971 16.0016 19.9987 16.0009C19.9995 16.0006 20.0006 16.0002 20.0016 16C20.0027 15.9998 20.0024 16 19.9999 16V20ZM19.9999 4C20.0024 4 20.0027 4.00022 20.0016 3.99999C20.0007 3.99979 19.9996 3.99945 19.9987 3.99907C19.9972 3.99843 19.9978 3.99842 19.9994 4.00001C20.001 4.0016 20.0011 4.00241 20.0006 4.00121C20.0003 4.00047 20 3.99957 19.9999 3.99877C19.9997 3.99785 19.9999 3.99838 19.9999 4.00101L23.9999 4.00091C23.9999 1.79315 22.2103 0 19.9999 0V4ZM8.00002 0C5.78948 0 3.99996 1.79332 4.00001 4.00113L8.00001 4.00105C8.00001 3.99842 8.00024 3.99789 8.00006 3.9988C7.99989 3.99959 7.99961 4.00049 7.9993 4.00123C7.9988 4.00243 7.99892 4.00161 8.00052 4.00001C8.00211 3.99842 8.00278 3.99843 8.00126 3.99907C8.00037 3.99945 7.99929 3.99979 7.99831 3.99999C7.9972 4.00022 7.99755 4 8.00002 4V0Z" fill="#42436C" mask="url(#path-2-inside-1_2652_8478)"/>
<rect x="10" y="9" width="8" height="2" rx="1" fill="#42436C"/>
</svg>
