<svg width="28" height="28" viewBox="0 0 28 28" fill="none" xmlns="http://www.w3.org/2000/svg">
<path d="M16.7219 5.68411C14.7092 5.02537 12.526 5.11888 10.5771 5.94729C8.82465 6.69219 7.36858 7.98583 6.42226 9.625H9.625C10.1082 9.625 10.5 10.0168 10.5 10.5C10.5 10.9833 10.1082 11.375 9.625 11.375H4.375C3.89175 11.375 3.5 10.9833 3.5 10.5V5.25C3.5 4.76675 3.89175 4.375 4.375 4.375C4.85825 4.375 5.25 4.76675 5.25 5.25V8.19586C6.38063 6.49137 7.9912 5.14492 9.8925 4.33675C12.2312 3.34265 14.8511 3.23044 17.2662 4.02093C19.6814 4.81143 21.7279 6.45098 23.0262 8.6355C24.3245 10.82 24.7865 13.4013 24.3266 15.9005C23.8666 18.3998 22.5159 20.6474 20.5249 22.2265C18.5339 23.8057 16.0378 24.6092 13.4994 24.4881C10.9611 24.3669 8.55284 23.3293 6.72129 21.5677C4.88975 19.8061 3.75922 17.4401 3.53937 14.9084C3.49756 14.427 3.85395 14.0028 4.33539 13.961C4.81683 13.9192 5.241 14.2756 5.28281 14.757C5.46601 16.8667 6.40812 18.8384 7.93441 20.3064C9.4607 21.7744 11.4676 22.6391 13.5829 22.7401C15.6981 22.841 17.7782 22.1714 19.4374 20.8554C21.0966 19.5395 22.2222 17.6665 22.6055 15.5838C22.9888 13.5011 22.6038 11.35 21.5218 9.52958C20.4399 7.70915 18.7345 6.34286 16.7219 5.68411Z" fill="#625EFF"/>
<path d="M13.125 7.875C12.6418 7.875 12.25 8.26675 12.25 8.75V14.875C12.25 15.3583 12.6418 15.75 13.125 15.75H16.625C17.1082 15.75 17.5 15.3583 17.5 14.875C17.5 14.3918 17.1082 14 16.625 14H14V8.75C14 8.26675 13.6082 7.875 13.125 7.875Z" fill="#625EFF"/>
</svg>
