<svg width="36" height="36" viewBox="0 0 36 36" fill="none" xmlns="http://www.w3.org/2000/svg">
<path d="M0 18C0 8.05888 8.05888 0 18 0C27.9411 0 36 8.05888 36 18C36 27.9411 27.9411 36 18 36C8.05888 36 0 27.9411 0 18Z" fill="#646270"/>
<path fill-rule="evenodd" clip-rule="evenodd" d="M22.3069 21.2475C24.7213 18.3015 24.5535 13.9469 21.8033 11.1967C18.8744 8.26777 14.1256 8.26777 11.1967 11.1967C8.26777 14.1256 8.26777 18.8744 11.1967 21.8033C13.9469 24.5535 18.3015 24.7213 21.2475 22.3069C21.2557 22.3159 21.2642 22.3249 21.273 22.3336L26.0459 27.1066C26.3388 27.3995 26.8137 27.3995 27.1066 27.1066C27.3995 26.8137 27.3995 26.3388 27.1066 26.0459L22.3336 21.273C22.3249 21.2642 22.3159 21.2557 22.3069 21.2475ZM20.7426 12.2574C23.0858 14.6005 23.0858 18.3995 20.7426 20.7426C18.3995 23.0858 14.6005 23.0858 12.2574 20.7426C9.91421 18.3995 9.91421 14.6005 12.2574 12.2574C14.6005 9.91421 18.3995 9.91421 20.7426 12.2574Z" fill="white"/>
</svg>
