<svg width="36" height="36" viewBox="0 0 36 36" fill="none" xmlns="http://www.w3.org/2000/svg">
<path d="M0 18C0 8.05888 8.05888 0 18 0C27.9411 0 36 8.05888 36 18C36 27.9411 27.9411 36 18 36C8.05888 36 0 27.9411 0 18Z" fill="#646270"/>
<path d="M19.4351 11.5355C18.8654 11.2995 18.2462 11.2076 17.6325 11.2681C17.0188 11.3285 16.4294 11.5394 15.9167 11.882C15.4039 12.2246 14.9836 12.6884 14.6928 13.2323C14.5205 13.5547 14.3969 13.8993 14.3248 14.255C14.2425 14.6609 13.9143 15 13.5 15C13.0858 15 12.7446 14.6625 12.8035 14.2525C12.8902 13.6501 13.0812 13.0653 13.37 12.5252C13.777 11.7637 14.3654 11.1144 15.0833 10.6348C15.8012 10.1551 16.6262 9.85991 17.4855 9.77528C18.3447 9.69066 19.2115 9.81924 20.0091 10.1496C20.8068 10.48 21.5106 11.002 22.0584 11.6694C22.6061 12.3368 22.9807 13.129 23.1492 13.9758C23.3176 14.8226 23.2746 15.6978 23.024 16.524L23.0126 16.5616L22.9973 16.5978C22.6618 17.3933 22.064 18.0872 21.5069 18.646C21.2236 18.9302 20.9363 19.1931 20.6811 19.4251L20.6092 19.4904C20.3792 19.6993 20.1859 19.8748 20.0304 20.0303L19.9917 20.069C19.593 20.4675 19.2204 20.84 19.049 21.1945C18.8687 21.5296 18.7974 22.0428 18.769 22.4963C18.7432 22.9097 18.4143 23.2453 18.0001 23.2447C17.5858 23.2441 17.2443 22.9077 17.2637 22.4939C17.2934 21.8642 17.3888 21.1172 17.6985 20.5417C17.9868 19.9453 18.5351 19.4012 18.8834 19.0556L18.8846 19.0543C18.9146 19.0246 18.943 18.9963 18.9697 18.9697C19.1525 18.7868 19.3742 18.5857 19.5969 18.3835L19.6723 18.315C19.9267 18.0838 20.1898 17.8425 20.4447 17.5868C20.9525 17.0776 21.3751 16.5618 21.6 16.0502C21.7688 15.4714 21.7957 14.8602 21.678 14.2684C21.5577 13.6636 21.2901 13.0977 20.8988 12.621C20.5076 12.1443 20.0049 11.7715 19.4351 11.5355Z" fill="white"/>
<path d="M18 27C18.6214 27 19.125 26.4963 19.125 25.875C19.125 25.2537 18.6214 24.75 18 24.75C17.3787 24.75 16.875 25.2537 16.875 25.875C16.875 26.4963 17.3787 27 18 27Z" fill="white"/>
</svg>
