<svg width="108" height="48" viewBox="0 0 108 48" fill="none" xmlns="http://www.w3.org/2000/svg">
<g clip-path="url(#clip0_3424_60847)">
<path d="M53.8044 13.6754C50.7334 13.6754 48.3324 14.6526 46.6015 16.6627C44.9264 18.5611 44.1167 21.018 44.1167 24.0611C44.1167 27.0762 44.9264 29.5331 46.6015 31.4315C48.3324 33.3858 50.7334 34.3909 53.8044 34.3909C56.8475 34.3909 59.2485 33.4137 61.0073 31.4594C62.6825 29.5889 63.52 27.1321 63.52 24.0611C63.52 20.99 62.6825 18.5053 61.0073 16.6348C59.2485 14.6526 56.8475 13.6754 53.8044 13.6754ZM53.8044 16.551C55.8704 16.551 57.4617 17.1931 58.5785 18.5332C59.6673 19.8733 60.2256 21.7159 60.2256 24.0611C60.2256 26.4062 59.6673 28.2209 58.5785 29.5331C57.4617 30.8452 55.8704 31.5153 53.8044 31.5153C51.7385 31.5153 50.1192 30.8173 49.0024 29.4493C47.9136 28.1092 47.3832 26.3224 47.3832 24.0611C47.3832 21.7718 47.9136 19.985 49.0024 18.6449C50.1471 17.249 51.7385 16.551 53.8044 16.551ZM79.1373 14.0663L69.8684 23.4748V14.0663H66.6019V34H69.8684V27.1321L72.2973 24.759L80.1703 34H84.5814L74.5028 22.6093L83.2692 14.0663H79.1373ZM86.5319 14.0663V34H89.7984V25.8758H94.9633C96.08 25.8758 96.9455 26.0991 97.5318 26.6016C98.0901 27.0762 98.4252 27.858 98.5368 28.9468L98.7881 31.4036C98.8998 32.5203 99.179 33.3858 99.6536 34H103.199C102.529 33.2741 102.11 32.297 101.999 31.0686L101.664 27.858C101.44 25.9037 100.463 24.759 98.7323 24.3682V24.3123C99.7932 24.0331 100.659 23.4469 101.273 22.5535C101.831 21.7438 102.11 20.8225 102.11 19.7895C102.11 17.8911 101.468 16.4393 100.24 15.4343C99.0673 14.513 97.448 14.0663 95.41 14.0663H86.5319ZM89.7984 16.8581H94.9633C96.3034 16.8581 97.2805 17.0815 97.8947 17.584C98.5089 18.0586 98.816 18.8403 98.816 19.9291C98.816 20.9342 98.5089 21.7159 97.8947 22.2743C97.2247 22.8047 96.2475 23.0839 94.9633 23.0839H89.7984V16.8581Z" fill="white"/>
<path d="M36.004 11.9894C32.821 8.8093 28.504 7.02271 24.0026 7.02271C19.5013 7.02271 15.1843 8.8093 12.0013 11.9894C8.81837 15.1696 7.03021 19.4828 7.03021 23.9802C7.03021 28.4776 8.81837 32.7908 12.0013 35.9709L24.0026 23.9802L36.004 11.9894Z" fill="#FEB632"/>
<path d="M36.8603 19.9803C36.8603 22.211 36.422 24.42 35.5705 26.4809C34.719 28.5418 33.4709 30.4145 31.8975 31.9918C30.3241 33.5692 28.4563 34.8204 26.4005 35.6741C24.3448 36.5278 22.1415 36.9672 19.9163 36.9672L19.9163 19.9803L36.8603 19.9803Z" fill="#D73847"/>
</g>
<defs>
<clipPath id="clip0_3424_60847">
<rect width="108" height="48" fill="white"/>
</clipPath>
</defs>
</svg>
