<svg width="121" height="38" viewBox="0 0 121 38" fill="none" xmlns="http://www.w3.org/2000/svg">
<path d="M27.9451 26.3848C26.3571 26.3848 24.8371 25.3431 24.3981 23.6217H27.9451H31.4922H35.1993C35.4323 22.5111 35.4307 21.3138 35.0931 20.0701C34.2975 17.1468 31.7901 14.9542 28.8121 14.6129C24.0478 14.0663 20.0555 18.0892 20.5737 22.9037C20.9493 26.3961 23.7641 29.196 27.2224 29.5278C29.5887 29.7554 31.7489 28.853 33.2483 27.2968C32.3987 26.0018 30.7631 25.5114 29.3462 26.1092C28.9484 26.2775 28.484 26.3848 27.9451 26.3848ZM27.9451 17.743C29.5332 17.743 31.0817 18.8248 31.4922 20.5061H24.3981C24.8974 18.7254 26.3571 17.743 27.9451 17.743Z" fill="#8989A0"/>
<path d="M79.7735 26.3848C78.1854 26.3848 76.6655 25.3431 76.2265 23.6217H79.7735H83.3205H87.0276C87.2606 22.5111 87.259 21.3138 86.9215 20.0701C86.1258 17.1468 83.6185 14.9542 80.6405 14.6129C75.8762 14.0663 71.8838 18.0892 72.4021 22.9037C72.7777 26.3961 75.5925 29.196 79.0508 29.5278C81.4171 29.7554 83.5773 28.853 85.0766 27.2968C84.2271 26.0018 82.5915 25.5114 81.1746 26.1092C80.7768 26.2775 80.3124 26.3848 79.7735 26.3848ZM79.7735 17.743C81.3616 17.743 82.91 18.8248 83.3205 20.5061H76.2265C76.7257 18.7254 78.1854 17.743 79.7735 17.743Z" fill="#8989A0"/>
<path d="M44.4045 14.563C40.3075 14.563 36.9871 17.9207 36.9871 22.0637C36.9871 26.2067 40.3075 29.5644 44.4045 29.5644C48.4999 29.5644 51.8218 26.2067 51.8218 22.0637C51.8203 17.9207 48.4999 14.563 44.4045 14.563ZM44.4045 25.9744C42.268 25.9744 40.5373 24.2226 40.5373 22.0637C40.5373 19.9032 42.2696 18.1531 44.4045 18.1531C46.5409 18.1531 48.2716 19.9049 48.2716 22.0637C48.2716 24.2242 46.5393 25.9744 44.4045 25.9744Z" fill="#8989A0"/>
<path d="M17.7447 8.43604C15.7921 8.43604 14.1961 10.2118 14.1961 12.3803V23.726C11.7917 20.0766 8.61558 15.2604 6.15263 11.5485C4.80862 9.52268 2.42967 8.43604 0.00158491 8.43604C0.00158491 8.43604 0.00158491 8.43604 0 8.43604V8.87839C0 11.9171 0 29.5631 0 29.5631C1.95261 29.5631 3.54862 27.7873 3.54862 25.6188V14.2731C6.00206 17.9995 9.23528 22.9022 11.592 26.4522C12.936 28.4781 15.315 29.5647 17.7447 29.5647C17.7447 29.5647 17.7447 29.4076 17.7447 29.1223C17.7447 26.082 17.7447 8.43604 17.7447 8.43604Z" fill="#8989A0"/>
<path d="M70.5809 14.5631C70.5809 14.5615 70.5809 14.5583 70.5809 14.5567C70.5809 14.4894 70.5793 14.4269 70.5761 14.366C70.4715 10.3159 67.1955 7.06396 63.1635 7.06396C59.0839 7.06396 55.7746 10.3944 55.7477 14.5134H55.7461C55.7461 14.5134 55.7461 14.531 55.7461 14.5631H51.0088V14.5775C51.0088 16.5521 52.5921 18.1516 54.5431 18.1516H55.7461C55.7461 22.6055 55.7461 29.5629 55.7461 29.5629C57.6987 29.5629 59.2947 27.7871 59.2947 25.6187V18.1516H64.032V18.1372C64.032 16.1626 62.4487 14.5631 60.4977 14.5631H59.2947C59.2947 12.4026 61.027 10.6525 63.1619 10.6525C65.2968 10.6525 67.0291 12.4042 67.0291 14.5631C67.0291 20.8025 67.0291 29.5629 67.0291 29.5629C68.9817 29.5629 70.5777 27.7871 70.5777 25.6187V14.5631C70.5809 14.5631 70.5809 14.5631 70.5809 14.5631Z" fill="#8989A0"/>
<path d="M89.1195 34.1259C90.1856 34.1259 91.0499 33.2519 91.0499 32.1738C91.0499 31.0957 90.1856 30.2217 89.1195 30.2217C88.0534 30.2217 87.1891 31.0957 87.1891 32.1738C87.1891 33.2519 88.0534 34.1259 89.1195 34.1259Z" fill="#8989A0"/>
<path d="M112.28 37.0541C113.346 37.0541 114.21 36.1801 114.21 35.102C114.21 34.0239 113.346 33.1499 112.28 33.1499C111.214 33.1499 110.349 34.0239 110.349 35.102C110.349 36.1801 111.214 37.0541 112.28 37.0541Z" fill="#8989A0"/>
<path d="M118.071 4.85051C119.137 4.85051 120.001 3.97652 120.001 2.8984C120.001 1.82028 119.137 0.946289 118.071 0.946289C117.005 0.946289 116.141 1.82028 116.141 2.8984C116.141 3.97652 117.005 4.85051 118.071 4.85051Z" fill="#8989A0"/>
<path d="M89.1195 13.6332C90.1856 13.6332 91.0499 12.7592 91.0499 11.6811C91.0499 10.603 90.1856 9.729 89.1195 9.729C88.0534 9.729 87.1891 10.603 87.1891 11.6811C87.1891 12.7592 88.0534 13.6332 89.1195 13.6332Z" fill="#8989A0"/>
<path d="M93.9441 30.7102C95.8094 30.7102 97.3215 29.1811 97.3215 27.2948C97.3215 25.4085 95.8094 23.8794 93.9441 23.8794C92.0788 23.8794 90.5667 25.4085 90.5667 27.2948C90.5667 29.1811 92.0788 30.7102 93.9441 30.7102Z" fill="#8989A0"/>
<path d="M108.37 29.2472C108.131 29.2472 107.937 29.0517 107.937 28.8113V27.364C107.937 25.4968 106.484 23.923 104.639 23.8813C102.712 23.8364 101.14 25.4263 101.184 27.3752C101.227 29.2424 102.781 30.7105 104.628 30.7105H106.059C106.297 30.7105 106.49 30.906 106.49 31.1464V31.148C106.49 32.2283 107.337 33.1402 108.403 33.1498C109.482 33.1594 110.359 32.2731 110.349 31.1817C110.341 30.1015 109.438 29.2472 108.37 29.2472Z" fill="#8989A0"/>
<path d="M114.193 4.85066C113.125 4.86028 112.28 5.77223 112.28 6.85246V6.85406C112.28 7.09447 112.086 7.29 111.849 7.29H110.418C108.571 7.29 107.015 8.7597 106.974 10.6253C106.929 12.5742 108.501 14.1641 110.429 14.1192C112.275 14.0759 113.727 12.502 113.727 10.6365V9.18923C113.727 8.94882 113.92 8.75329 114.158 8.75329H114.16C115.228 8.75329 116.13 7.89743 116.139 6.8188C116.149 5.72735 115.272 4.84105 114.193 4.85066Z" fill="#8989A0"/>
<path d="M102.629 21.9272V21.8583C102.629 20.8182 103.463 19.9751 104.492 19.9751C106.338 19.9751 107.894 18.5054 107.936 16.6399C107.98 14.691 106.408 13.1011 104.481 13.1459C102.634 13.1892 101.182 14.7631 101.182 16.6287C101.182 17.6688 100.349 18.5118 99.32 18.5118H99.2519H99.1822C98.1551 18.5118 97.3231 17.6704 97.3231 16.6319V16.6287C97.3231 14.7615 95.8697 13.1876 94.0249 13.1459C92.0976 13.1011 90.5254 14.691 90.5698 16.6399C90.6126 18.507 92.1674 19.9751 94.0138 19.9751H94.0169C95.044 19.9751 95.876 20.8166 95.876 21.8551C95.876 23.7159 97.3183 25.2897 99.1584 25.341C101.067 25.3939 102.629 23.8457 102.629 21.9272Z" fill="#8989A0"/>
</svg>
