<svg width="22" height="22" viewBox="0 0 22 22" fill="none" xmlns="http://www.w3.org/2000/svg">
<path d="M13.7219 2.68411C11.7092 2.02537 9.52601 2.11888 7.57709 2.94729C5.82465 3.69219 4.36858 4.98583 3.42226 6.625H6.625C7.10825 6.625 7.5 7.01675 7.5 7.5C7.5 7.98325 7.10825 8.375 6.625 8.375H1.375C0.891751 8.375 0.5 7.98325 0.5 7.5V2.25C0.5 1.76675 0.891751 1.375 1.375 1.375C1.85825 1.375 2.25 1.76675 2.25 2.25V5.19586C3.38063 3.49137 4.9912 2.14492 6.8925 1.33675C9.23121 0.34265 11.8511 0.230442 14.2662 1.02093C16.6814 1.81143 18.7279 3.45098 20.0262 5.6355C21.3245 7.82002 21.7865 10.4013 21.3266 12.9005C20.8666 15.3998 19.5159 17.6474 17.5249 19.2265C15.5339 20.8057 13.0378 21.6092 10.4994 21.4881C7.9611 21.3669 5.55284 20.3293 3.72129 18.5677C1.88975 16.8061 0.759215 14.4401 0.539367 11.9084C0.49756 11.427 0.853951 11.0028 1.33539 10.961C1.81683 10.9192 2.241 11.2756 2.28281 11.757C2.46601 13.8667 3.40812 15.8384 4.93441 17.3064C6.4607 18.7744 8.46758 19.6391 10.5829 19.7401C12.6981 19.841 14.7782 19.1714 16.4374 17.8554C18.0966 16.5395 19.2222 14.6665 19.6055 12.5838C19.9888 10.5011 19.6038 8.35002 18.5218 6.52958C17.4399 4.70915 15.7345 3.34286 13.7219 2.68411Z" fill="#6F6F8B"/>
<path d="M10.125 4.875C9.64175 4.875 9.25 5.26675 9.25 5.75V11.875C9.25 12.3583 9.64175 12.75 10.125 12.75H13.625C14.1082 12.75 14.5 12.3583 14.5 11.875C14.5 11.3918 14.1082 11 13.625 11H11V5.75C11 5.26675 10.6082 4.875 10.125 4.875Z" fill="#6F6F8B"/>
</svg>
