<svg width="16" height="15" viewBox="0 0 16 15" fill="none" xmlns="http://www.w3.org/2000/svg">
<path fill-rule="evenodd" clip-rule="evenodd" d="M9.97779 0.990961C10.5638 0.40491 11.3587 0.0756698 12.1875 0.0756699C13.0163 0.07567 13.8112 0.40491 14.3972 0.990961C14.9833 1.57701 15.3125 2.37187 15.3125 3.20067C15.3125 4.02947 14.9833 4.82433 14.3972 5.41038L5.11644 14.6912C4.99923 14.8084 4.84025 14.8742 4.67449 14.8742L1.13896 14.8742C0.793783 14.8742 0.513962 14.5944 0.513962 14.2492L0.513957 10.7137C0.513957 10.5479 0.579805 10.3889 0.697016 10.2717L9.97779 0.990961ZM12.1875 1.32567C12.6848 1.32567 13.1617 1.52321 13.5133 1.87484C13.865 2.22648 14.0625 2.70339 14.0625 3.20067C14.0625 3.48299 13.9988 3.75874 13.8794 4.00873L11.3794 1.50873C11.6294 1.38934 11.9052 1.32567 12.1875 1.32567ZM1.76396 13.6242L1.76396 10.9726L10.4197 2.31679L13.0714 4.96844L4.41561 13.6242L1.76396 13.6242Z" fill="#625EFF"/>
</svg>
