<svg width="36" height="36" viewBox="0 0 36 36" fill="none" xmlns="http://www.w3.org/2000/svg">
<path d="M0 18C0 8.05888 8.05888 0 18 0C27.9411 0 36 8.05888 36 18C36 27.9411 27.9411 36 18 36C8.05888 36 0 27.9411 0 18Z" fill="#7374B8"/>
<path fill-rule="evenodd" clip-rule="evenodd" d="M22.875 13.125C22.875 15.8174 20.6924 18 18 18C15.3076 18 13.125 15.8174 13.125 13.125C13.125 10.4326 15.3076 8.25 18 8.25C20.6924 8.25 22.875 10.4326 22.875 13.125ZM21.375 13.125C21.375 14.989 19.864 16.5 18 16.5C16.136 16.5 14.625 14.989 14.625 13.125C14.625 11.261 16.136 9.75 18 9.75C19.864 9.75 21.375 11.261 21.375 13.125Z" fill="white"/>
<path fill-rule="evenodd" clip-rule="evenodd" d="M24.6295 19.6998C24.3111 19.5679 23.9697 19.5 23.625 19.5H12.375C12.0303 19.5 11.6889 19.5679 11.3705 19.6998C11.052 19.8317 10.7626 20.0251 10.5188 20.2688C10.2751 20.5126 10.0817 20.802 9.94982 21.1205C9.8179 21.4389 9.75 21.7803 9.75 22.125V22.5C9.75 23.1893 9.96332 23.872 10.378 24.5091C10.7926 25.146 11.4002 25.7248 12.1664 26.2123C12.9324 26.6998 13.8419 27.0865 14.8429 27.3504C15.8438 27.6142 16.9166 27.75 18 27.75C19.0834 27.75 20.1562 27.6142 21.1571 27.3504C22.1581 27.0865 23.0676 26.6998 23.8336 26.2123C24.5997 25.7248 25.2074 25.146 25.622 24.5091C26.0367 23.872 26.25 23.1893 26.25 22.5V22.125C26.25 21.7803 26.1821 21.4389 26.0502 21.1205C25.9183 20.802 25.7249 20.5126 25.4812 20.2688C25.2374 20.0251 24.948 19.8317 24.6295 19.6998ZM11.9445 21.0856C12.081 21.0291 12.2273 21 12.375 21H23.625C23.7727 21 23.919 21.0291 24.0555 21.0856C24.192 21.1422 24.316 21.225 24.4205 21.3295C24.525 21.434 24.6078 21.558 24.6644 21.6945C24.7209 21.831 24.75 21.9773 24.75 22.125V22.5C24.75 22.8696 24.6378 23.2716 24.3649 23.6908C24.0877 24.1166 23.6482 24.5523 23.0283 24.9468C22.4097 25.3405 21.6466 25.6701 20.7748 25.8999C19.9043 26.1294 18.9604 26.25 18 26.25C17.0396 26.25 16.0957 26.1294 15.2252 25.8999C14.3534 25.6701 13.5903 25.3405 12.9717 24.9468C12.3518 24.5523 11.9123 24.1166 11.6351 23.6908C11.3622 23.2716 11.25 22.8696 11.25 22.5V22.125C11.25 21.9773 11.2791 21.831 11.3356 21.6945C11.3922 21.558 11.475 21.434 11.5795 21.3295C11.684 21.225 11.808 21.1422 11.9445 21.0856Z" fill="white"/>
</svg>
