<svg width="16" height="16" viewBox="0 0 16 16" fill="none" xmlns="http://www.w3.org/2000/svg">
<path fill-rule="evenodd" clip-rule="evenodd" d="M11.5891 10.7062C13.6011 8.25122 13.4612 4.62239 11.1694 2.33058C8.72864 -0.110194 4.77136 -0.110194 2.33058 2.33058C-0.110194 4.77136 -0.110194 8.72864 2.33058 11.1694C4.62239 13.4612 8.25122 13.6011 10.7062 11.5891C10.7131 11.5966 10.7202 11.6041 10.7275 11.6114L14.705 15.5888C14.949 15.8329 15.3448 15.8329 15.5888 15.5888C15.8329 15.3448 15.8329 14.949 15.5888 14.705L11.6114 10.7275C11.6041 10.7202 11.5966 10.7131 11.5891 10.7062ZM10.2855 3.21447C12.2382 5.16709 12.2382 8.33291 10.2855 10.2855C8.33291 12.2382 5.16709 12.2382 3.21447 10.2855C1.26184 8.33291 1.26184 5.16709 3.21447 3.21447C5.16709 1.26184 8.33291 1.26184 10.2855 3.21447Z" fill="white"/>
</svg>
