<svg width="24" height="25" viewBox="0 0 24 25" fill="none" xmlns="http://www.w3.org/2000/svg">
<path d="M14.25 12.5C14.25 13.7426 13.2426 14.75 12 14.75C10.7574 14.75 9.75 13.7426 9.75 12.5C9.75 11.2574 10.7574 10.25 12 10.25C13.2426 10.25 14.25 11.2574 14.25 12.5Z" fill="#625EFF"/>
<path fill-rule="evenodd" clip-rule="evenodd" d="M18 12.5C18 15.8137 15.3137 18.5 12 18.5C8.68629 18.5 6 15.8137 6 12.5C6 9.18629 8.68629 6.5 12 6.5C15.3137 6.5 18 9.18629 18 12.5ZM16.5 12.5C16.5 14.9853 14.4853 17 12 17C9.51472 17 7.5 14.9853 7.5 12.5C7.5 10.0147 9.51472 8 12 8C14.4853 8 16.5 10.0147 16.5 12.5Z" fill="#625EFF"/>
<path fill-rule="evenodd" clip-rule="evenodd" d="M12 22.25C17.3848 22.25 21.75 17.8848 21.75 12.5C21.75 7.11522 17.3848 2.75 12 2.75C6.61522 2.75 2.25 7.11522 2.25 12.5C2.25 17.8848 6.61522 22.25 12 22.25ZM12 20.75C16.5563 20.75 20.25 17.0563 20.25 12.5C20.25 7.94365 16.5563 4.25 12 4.25C7.44365 4.25 3.75 7.94365 3.75 12.5C3.75 17.0563 7.44365 20.75 12 20.75Z" fill="#625EFF"/>
</svg>
