<svg width="20" height="19" viewBox="0 0 20 19" fill="none" xmlns="http://www.w3.org/2000/svg">
<path d="M9.25003 7.00016C9.25003 6.58595 9.58581 6.25016 10 6.25016C10.4142 6.25016 10.75 6.58595 10.75 7.00016V11.5002C10.75 11.9144 10.4142 12.2502 10 12.2502C9.58581 12.2502 9.25003 11.9144 9.25003 11.5002V7.00016Z" fill="#D63964"/>
<path d="M10 16.0002C10.6213 16.0002 11.125 15.4965 11.125 14.8752C11.125 14.2538 10.6213 13.7502 10 13.7502C9.37871 13.7502 8.87503 14.2538 8.87503 14.8752C8.87503 15.4965 9.37871 16.0002 10 16.0002Z" fill="#D63964"/>
<path fill-rule="evenodd" clip-rule="evenodd" d="M11.9753 1.48899L19.7119 15.6727C20.5297 17.1721 19.4445 19.0002 17.7366 19.0002H2.26343C0.555548 19.0002 -0.529655 17.1721 0.288168 15.6727L8.02476 1.48899C8.87755 -0.0744542 11.1225 -0.0744551 11.9753 1.48899ZM10.6584 2.20727C10.3742 1.68612 9.62587 1.68612 9.3416 2.20727L1.60501 16.391C1.3324 16.8908 1.69414 17.5002 2.26343 17.5002H17.7366C18.3059 17.5002 18.6676 16.8908 18.395 16.391L10.6584 2.20727Z" fill="#D63964"/>
</svg>
